<?xml version="1.0" standalone="no"?>
<!DOCTYPE svg PUBLIC "-//W3C//DTD SVG 20010904//EN"
 "http://www.w3.org/TR/2001/REC-SVG-20010904/DTD/svg10.dtd">
<svg version="1.0" xmlns="http://www.w3.org/2000/svg"
 width="602.000000pt" height="602.000000pt" viewBox="0 0 602.000000 602.000000"
 preserveAspectRatio="xMidYMid meet">
<metadata>
Created by potrace 1.11, written by Peter Selinger 2001-2013
</metadata>
<g transform="translate(0.000000,602.000000) scale(0.100000,-0.100000)"
fill="#000000" stroke="none">
<path d="M2805 6009 c-689 -84 -1309 -527 -1724 -1232 -227 -386 -370 -830
-437 -1352 -26 -197 -26 -643 0 -840 103 -805 400 -1451 890 -1940 346 -345
736 -553 1180 -630 122 -21 480 -21 602 0 444 77 834 285 1180 630 490 489
787 1135 890 1940 26 197 26 643 0 840 -103 805 -400 1451 -890 1940 -346 345
-730 550 -1181 630 -109 20 -399 28 -510 14z"/>
</g>
</svg>
